<?xml version="1.0" encoding="utf-8"?>
<!-- Generator: Adobe Illustrator 27.9.0, SVG Export Plug-In . SVG Version: 6.00 Build 0)  -->
<svg version="1.1" id="Слой_1" xmlns="http://www.w3.org/2000/svg" xmlns:xlink="http://www.w3.org/1999/xlink" x="0px" y="0px"
	 viewBox="0 0 2000 2000" style="enable-background:new 0 0 2000 2000;" xml:space="preserve">
<style type="text/css">
	.st0{fill:#EDEEF9;stroke:#000000;stroke-width:7;stroke-miterlimit:10;}
	.st1{fill:#FCFCE3;stroke:#000000;stroke-width:7;stroke-miterlimit:10;}
	.st2{fill:#F7F7F7;stroke:#000000;stroke-width:3;stroke-miterlimit:10;}
	.st3{fill:none;stroke:#000000;stroke-width:10;stroke-miterlimit:10;}
</style>
<path class="st0" d="M1470,1000c0-259.57-210.43-470-470-470s-470,210.43-470,470c0,27.75,2.41,54.93,7.02,81.36l915.44,46.25
	C1463.89,1087.03,1470,1044.23,1470,1000z"/>
<path class="st1" d="M1005.1,1043.44c-102.15-26.61-314.37-15.37-473.25-1.42C553.11,1281.91,754.59,1470,1000,1470
	c239.11,0,436.51-178.56,466.15-409.6C1318.55,1067.48,1110.89,1071,1005.1,1043.44z"/>
<path class="st2" d="M1092.5,1463.5c31.75-206.13,66.09-424.83,66.09-424.83l-6.89-1.24l-71.15,428.05L1092.5,1463.5z"/>
<path class="st2" d="M1003.5,1467.5c-5.02-203.68-13-420-13-420h-7l5,420H1003.5z"/>
<path class="st2" d="M937.5,1465.5c-52.11-201.61-108.62-421.35-108.62-421.35l-6.82,1.58l102.1,415.33L937.5,1465.5z"/>
<g>
	<path class="st2" d="M849.37,1041.41c0,0,28.63-51.34-29.54-89.22c-12.81-8.34-24.09-19.7-28.86-34.48
		c-14.21-44.1-3.39-117.87,6.2-210.77c0,0-34.57,107.65-19.2,218.44c0,0-24.01,33.28-1.65,82.54S849.37,1041.41,849.37,1041.41z"/>
	<path class="st2" d="M856.42,1086.88c0,0,28.63-51.34-29.54-89.22c-12.81-8.34-24.09-19.7-28.86-34.48
		c-14.21-44.1-3.39-117.87,6.2-210.77c0,0-34.57,107.65-19.2,218.44c0,0-24.01,33.28-1.65,82.54
		C805.74,1102.64,856.42,1086.88,856.42,1086.88z"/>
	<path class="st2" d="M830.07,1027.3c0,0-38.61-41.85,9.82-94.77c10.66-11.65,19.22-25.81,20.72-41.48
		c4.48-46.74-21.59-115.3-50.5-202.77c0,0,56.26,94.84,64.74,206.59c0,0,30.32,25.61,19.02,79.62
		C882.57,1028.49,830.07,1027.3,830.07,1027.3z"/>
	<path class="st2" d="M898.41,1063.86c0,0,19.03-53.18-46.6-83.69c-14.45-6.72-27.94-16.54-35.54-30.43
		c-22.64-41.41-25.76-114.48-33.75-206.07c0,0-14.32,108.71,22.13,214.96c0,0-17.81,35.07,14,80.61
		C850.46,1084.79,898.41,1063.86,898.41,1063.86z"/>
	<path class="st2" d="M851.98,1040.3c0,0,18.11-25.1,2.16-84.1c-3.5-12.94-21.16-43.31-27.05-57.78
		c-17.58-43.15-12.23-116.82-9.56-209.44c0,0-33.92,109.48-10.19,218.75c0,0-17.76,46.84,8.39,94.76
		C841.88,1050.4,851.98,1040.3,851.98,1040.3z"/>
	<path class="st2" d="M835.63,1092.2c0,0-28.74-46.7,29.32-93.97c12.78-10.41,24.04-23.59,28.77-39.14
		c14.1-46.39,3.11-118.39-6.69-209.73c0,0,34.82,102.05,19.71,215.29c0,0,24.08,29.39,1.84,82.26
		C886.34,1099.76,835.63,1092.2,835.63,1092.2z"/>
	<path class="st2" d="M904.6,1166.05c0,0,10.19-53.88-60.92-77.33c-15.65-5.16-30.87-13.46-40.84-26.3
		c-29.72-38.3-45.14-109.49-68.57-198.32c0,0,3.88,107.75,58.39,208.16c0,0-12.01,36.05,27.62,77.5S904.6,1166.05,904.6,1166.05z"/>
	<path class="st2" d="M916.82,1134.94c0,0,11.03-26.91-21.53-80.61c-7.14-11.78-33.35-37.88-43.32-50.72
		c-29.72-38.3-45.14-109.49-68.57-198.32c0,0-3.06,110.03,51.45,210.43c0,0-4.55,47.61,35.09,89.06S916.82,1134.94,916.82,1134.94z"
		/>
	<path class="st2" d="M853.43,1152.6c0,0-28.74-46.7,29.32-93.97c12.78-10.41,24.04-23.59,28.77-39.14
		c14.1-46.39,3.11-118.39-6.69-209.73c0,0,34.82,102.05,19.71,215.29c0,0,24.08,29.39,1.84,82.26
		C904.15,1160.16,853.43,1152.6,853.43,1152.6z"/>
	<path class="st2" d="M921.65,1211.67c0,0,11.03-26.91-21.53-80.61c-7.14-11.78-33.35-37.88-43.32-50.72
		c-29.72-38.3-45.14-109.49-68.57-198.32c0,0-3.06,110.03,51.45,210.43c0,0-4.55,47.61,35.09,89.06S921.65,1211.67,921.65,1211.67z"
		/>
	<path class="st2" d="M914.54,1219.94c0,0,10.19-53.88-60.92-77.33c-15.65-5.16-30.87-13.46-40.84-26.3
		c-29.72-38.3-45.14-109.49-68.57-198.32c0,0,3.88,107.75,58.39,208.16c0,0-12.01,36.05,27.62,77.5S914.54,1219.94,914.54,1219.94z"
		/>
	<path class="st2" d="M861.99,1220.68c0,0-28.74-46.7,29.32-93.97c12.78-10.41,24.04-23.59,28.77-39.14
		c14.1-46.39,3.11-118.39-6.69-209.73c0,0,34.82,102.05,19.71,215.29c0,0,24.08,29.39,1.84,82.26
		C912.71,1228.24,861.99,1220.68,861.99,1220.68z"/>
	<path class="st2" d="M921.85,1281.29c0,0,10.19-53.88-60.92-77.33c-15.65-5.16-30.87-13.46-40.84-26.3
		c-29.72-38.3-45.14-109.49-68.57-198.32c0,0,3.88,107.75,58.39,208.16c0,0-12.01,36.05,27.62,77.5
		C877.17,1306.45,921.85,1281.29,921.85,1281.29z"/>
	<path class="st2" d="M929.35,1296.82c0,0,11.03-26.91-21.53-80.61c-7.14-11.78-33.35-37.88-43.32-50.72
		c-29.72-38.3-45.14-109.49-68.57-198.32c0,0-3.06,110.03,51.45,210.43c0,0-4.55,47.61,35.09,89.06S929.35,1296.82,929.35,1296.82z"
		/>
	<path class="st2" d="M876.86,1279.63c0,0-28.74-46.7,29.32-93.97c12.78-10.41,24.04-23.59,28.77-39.14
		c14.1-46.39,3.11-118.39-6.69-209.73c0,0,34.82,102.05,19.71,215.29c0,0,24.08,29.39,1.84,82.26
		C927.58,1287.2,876.86,1279.63,876.86,1279.63z"/>
	<path class="st2" d="M922.59,1335.88c0,0,10.19-53.88-60.92-77.33c-15.65-5.16-30.87-13.46-40.84-26.3
		c-29.72-38.3-45.14-109.49-68.57-198.32c0,0,3.88,107.75,58.39,208.16c0,0-12.01,36.05,27.62,77.5
		C877.91,1361.04,922.59,1335.88,922.59,1335.88z"/>
	<path class="st2" d="M941.56,1370.2c0,0,11.03-26.91-21.53-80.61c-7.14-11.78-33.35-37.88-43.32-50.72
		c-29.72-38.3-45.14-109.49-68.57-198.32c0,0-3.06,110.03,51.45,210.43c0,0-4.55,47.61,35.09,89.06S941.56,1370.2,941.56,1370.2z"/>
	<path class="st2" d="M903.42,1351.36c0,0-29.18-63.54,28.88-110.81c12.78-10.41,24.04-23.59,28.77-39.14
		c14.1-46.39,3.11-118.39-6.69-209.73c0,0,34.82,102.05,19.71,215.29c0,0,24.08,29.39,1.84,82.26
		C953.7,1342.09,903.42,1351.36,903.42,1351.36z"/>
	<path class="st2" d="M937.42,1401.81c0,0,10.19-53.88-60.92-77.33c-15.65-5.16-30.87-13.46-40.84-26.3
		c-29.72-38.3-45.14-109.49-68.57-198.32c0,0,3.88,107.75,58.39,208.16c0,0-12.01,36.05,27.62,77.5S937.42,1401.81,937.42,1401.81z"
		/>
	<path class="st2" d="M915.01,1406.94c0,0-28.74-46.7,29.32-93.97c12.78-10.41,24.04-23.59,28.77-39.14
		c14.1-46.39,3.11-118.39-6.69-209.73c0,0,34.82,102.05,19.71,215.29c0,0,11.95,28.65-10.29,81.51
		C953.59,1413.76,915.01,1406.94,915.01,1406.94z"/>
</g>
<g>
	<path class="st2" d="M1151.65,1033.66c0,0-29.79-50.67,27.49-89.87c12.61-8.63,23.64-20.24,28.06-35.14
		c13.2-44.41,0.69-117.91-11.01-210.58c0,0,37.02,106.83,24.19,217.94c0,0,24.76,32.72,3.53,82.48
		C1202.68,1048.25,1151.65,1033.66,1151.65,1033.66z"/>
	<path class="st2" d="M1145.64,1079.28c0,0-29.79-50.67,27.49-89.87c12.61-8.63,23.64-20.24,28.06-35.14
		c13.2-44.41,0.69-117.91-11.01-210.58c0,0,37.02,106.83,24.19,217.94c0,0,24.76,32.72,3.53,82.48
		C1196.67,1093.87,1145.64,1079.28,1145.64,1079.28z"/>
	<path class="st2" d="M1170.62,1019.1c0,0,37.64-42.72-11.99-94.52c-10.93-11.4-19.8-25.36-21.66-40.99
		c-5.55-46.62,18.95-115.76,45.85-203.88c0,0-54.08,96.1-60,208.02c0,0-29.72,26.3-17.19,80.04
		C1118.16,1021.5,1170.62,1019.1,1170.62,1019.1z"/>
	<path class="st2" d="M1103.14,1057.21c0,0-20.24-52.73,44.67-84.73c14.29-7.05,27.56-17.18,34.83-31.23
		c21.69-41.91,23.13-115.04,29.02-206.78c0,0,16.8,108.35-17.21,215.41c0,0,18.61,34.65-12.15,80.91
		C1151.55,1077.04,1103.14,1057.21,1103.14,1057.21z"/>
	<path class="st2" d="M1149.01,1032.6c0,0-18.68-24.68-4.09-84.03c3.2-13.02,20.16-43.79,25.72-58.39
		c16.58-43.54,9.56-117.07,4.77-209.6c0,0,36.42,108.67,15.19,218.46c0,0,18.82,46.42-6.22,94.92
		C1159.34,1042.46,1149.01,1032.6,1149.01,1032.6z"/>
	<path class="st2" d="M1166.55,1084.11c0,0,27.67-47.35-31.46-93.28c-13.02-10.11-24.57-23.03-29.66-38.47
		c-15.16-46.05-5.82-118.29,1.89-209.83c0,0-32.47,102.82-14.78,215.69c0,0-23.4,29.94,0.04,82.28
		C1116.02,1092.83,1166.55,1084.11,1166.55,1084.11z"/>
	<path class="st2" d="M1099.29,1159.52c0,0-11.42-53.64,59.13-78.7c15.53-5.52,30.56-14.16,40.23-27.23
		c28.84-38.97,42.63-110.49,64.01-199.84c0,0-1.41,107.81-53.61,209.44c0,0,12.83,35.77-25.84,78.11
		S1099.29,1159.52,1099.29,1159.52z"/>
	<path class="st2" d="M1086.35,1128.7c0,0-11.64-26.65,19.68-81.09c6.87-11.94,32.47-38.63,42.15-51.7
		c28.84-38.97,42.63-110.49,64.01-199.84c0,0,5.58,109.93-46.62,211.55c0,0,5.64,47.49-33.04,89.84S1086.35,1128.7,1086.35,1128.7z"
		/>
	<path class="st2" d="M1150.13,1144.91c0,0,27.67-47.35-31.46-93.28c-13.02-10.11-24.57-23.03-29.66-38.47
		c-15.16-46.05-5.82-118.29,1.89-209.83c0,0-32.47,102.82-14.78,215.69c0,0-23.4,29.94,0.04,82.28
		C1099.6,1153.63,1150.13,1144.91,1150.13,1144.91z"/>
	<path class="st2" d="M1083.28,1205.52c0,0-11.64-26.65,19.68-81.09c6.87-11.94,32.47-38.63,42.15-51.7
		c28.84-38.97,42.63-110.49,64.01-199.84c0,0,5.58,109.93-46.62,211.55c0,0,5.64,47.49-33.04,89.84S1083.28,1205.52,1083.28,1205.52
		z"/>
	<path class="st2" d="M1090.58,1213.63c0,0-11.42-53.64,59.13-78.7c15.53-5.52,30.56-14.16,40.23-27.23
		c28.84-38.97,42.63-110.49,64.01-199.84c0,0-1.41,107.81-53.61,209.44c0,0,12.83,35.77-25.84,78.11
		C1135.82,1237.76,1090.58,1213.63,1090.58,1213.63z"/>
	<path class="st2" d="M1143.13,1213.16c0,0,27.67-47.35-31.46-93.28c-13.02-10.11-24.57-23.03-29.66-38.47
		c-15.16-46.05-5.82-118.29,1.89-209.83c0,0-32.47,102.82-14.78,215.69c0,0-23.4,29.94,0.04,82.28
		C1092.6,1221.89,1143.13,1213.16,1143.13,1213.16z"/>
	<path class="st2" d="M1084.67,1275.13c0,0-11.42-53.64,59.13-78.7c15.53-5.52,30.56-14.16,40.23-27.23
		c28.84-38.97,42.63-110.49,64.01-199.84c0,0-1.41,107.81-53.61,209.44c0,0,12.83,35.77-25.84,78.11
		C1129.91,1299.25,1084.67,1275.13,1084.67,1275.13z"/>
	<path class="st2" d="M1077.53,1290.83c0,0-11.64-26.65,19.68-81.09c6.87-11.94,32.47-38.63,42.15-51.7
		c28.84-38.97,42.63-110.49,64.01-199.84c0,0,5.58,109.93-46.62,211.55c0,0,5.64,47.49-33.04,89.84S1077.53,1290.83,1077.53,1290.83
		z"/>
	<path class="st2" d="M1129.61,1272.44c0,0,27.67-47.35-31.46-93.28c-13.02-10.11-24.57-23.03-29.66-38.47
		c-15.16-46.05-5.82-118.29,1.89-209.83c0,0-32.47,102.82-14.78,215.69c0,0-23.4,29.94,0.04,82.28
		C1079.08,1281.16,1129.61,1272.44,1129.61,1272.44z"/>
	<path class="st2" d="M1085.18,1329.72c0,0-11.42-53.64,59.13-78.7c15.53-5.52,30.56-14.16,40.23-27.23
		c28.84-38.97,42.63-110.49,64.01-199.84c0,0-1.41,107.81-53.61,209.44c0,0,12.83,35.77-25.84,78.11
		S1085.18,1329.72,1085.18,1329.72z"/>
	<path class="st2" d="M1067.01,1364.47c0,0-11.64-26.65,19.68-81.09c6.87-11.94,32.47-38.63,42.15-51.7
		c28.84-38.97,42.63-110.49,64.01-199.84c0,0,5.58,109.93-46.62,211.55c0,0,5.64,47.49-33.04,89.84
		C1074.51,1375.58,1067.01,1364.47,1067.01,1364.47z"/>
	<path class="st2" d="M1104.7,1344.76c0,0,27.72-64.19-31.41-110.12c-13.02-10.11-24.57-23.03-29.66-38.47
		c-15.16-46.05-5.82-118.29,1.89-209.83c0,0-32.47,102.82-14.78,215.69c0,0-23.4,29.94,0.04,82.28
		C1054.22,1336.64,1104.7,1344.76,1104.7,1344.76z"/>
	<path class="st2" d="M1071.87,1395.97c0,0-11.42-53.64,59.13-78.7c15.53-5.52,30.56-14.16,40.23-27.23
		c28.84-38.97,42.63-110.49,64.01-199.84c0,0-1.41,107.81-53.61,209.44c0,0,12.83,35.77-25.84,78.11
		S1071.87,1395.97,1071.87,1395.97z"/>
	<path class="st2" d="M1094.39,1400.59c0,0,27.67-47.35-31.46-93.28c-13.02-10.11-24.57-23.03-29.66-38.47
		c-15.16-46.05-5.82-118.29,1.89-209.83c0,0-32.47,102.82-14.78,215.69c0,0-11.29,28.91,12.15,81.25
		C1055.97,1408.29,1094.39,1400.59,1094.39,1400.59z"/>
</g>
<g>
	<path class="st2" d="M990.92,1020.43c0,0,37.46-49.1-12.86-100.93c-11.08-11.41-20.12-25.74-22.12-42.44
		c-5.98-49.81,18.04-126.33,44.32-223.5c0,0-53.52,107.98-58.5,229.11c0,0-29.65,30.76-16.59,87.67
		C938.22,1027.26,990.92,1020.43,990.92,1020.43z"/>
	<path class="st2" d="M989.61,1070.29c0,0,37.46-49.1-12.86-100.93c-11.08-11.41-20.12-25.74-22.12-42.44
		c-5.98-49.81,18.04-126.33,44.32-223.5c0,0-53.52,107.98-58.5,229.11c0,0-29.65,30.76-16.59,87.67
		C936.91,1077.12,989.61,1070.29,989.61,1070.29z"/>
	<path class="st2" d="M974.5,1001.58c0,0-30.38-52.21,26.85-99.11c12.6-10.32,23.58-23.74,27.9-40.15
		c12.88-48.95-0.32-127.17-12.88-226.12c0,0,38.13,112.17,26.19,232.99c0,0,25.17,33.27,4.26,88.63
		C1025.92,1013.18,974.5,1001.58,974.5,1001.58z"/>
	<path class="st2" d="M1035.07,1053.99c0,0,28.36-52.95-30.65-98.38c-12.99-10-24.48-23.13-29.43-39.43
		c-14.76-48.6-4.57-127.12,4.19-226.33c0,0-33.8,113.08-17.23,233.53c0,0-23.88,33.89-0.85,88.69
		C984.13,1066.88,1035.07,1053.99,1035.07,1053.99z"/>
	<path class="st2" d="M993.69,1019.75c0,0,22.36-23.19,17.38-89.23c-1.09-14.48-12.95-50.34-16.12-66.92
		c-9.46-49.46,9.16-126.95,28.59-225.17c0,0-53.22,110.05-49.7,231.21c0,0-25.96,46.45-8.93,102.67
		C981.93,1028.53,993.69,1019.75,993.69,1019.75z"/>
	<path class="st2" d="M968.2,1071.86c0,0-19.8-55.44,45.88-94.42c14.46-8.58,27.92-20.42,35.39-36.07
		c22.28-46.68,24.53-125.61,31.46-224.92c0,0,15.73,115.64-19.66,233.41c0,0,18.35,36.07-13.11,88.06
		C1016.7,1089.9,968.2,1071.86,968.2,1071.86z"/>
	<path class="st2" d="M1022.63,1164.17c0,0,19.8-55.44-45.88-94.42c-14.46-8.58-27.92-20.42-35.39-36.07
		c-22.28-46.68-24.53-125.61-31.46-224.92c0,0-15.73,115.64,19.66,233.41c0,0-18.35,36.07,13.11,88.06
		C974.12,1182.2,1022.63,1164.17,1022.63,1164.17z"/>
	<path class="st2" d="M1040.29,1133.4c0,0,15.73-26.52-6.55-90.18c-4.89-13.96-25.93-46.94-33.4-62.6
		c-22.28-46.68-24.53-125.61-31.46-224.92c0,0-22.97,116.7,12.42,234.47c0,0-13.11,49.86,18.35,101.85
		C1031.12,1144.01,1040.29,1133.4,1040.29,1133.4z"/>
	<path class="st2" d="M974.75,1139.76c0,0-19.8-55.44,45.88-94.42c14.46-8.58,27.92-20.42,35.39-36.07
		c22.28-46.68,24.53-125.61,31.46-224.92c0,0,15.73,115.64-19.66,233.41c0,0,18.35,36.07-13.11,88.06
		C1023.25,1157.8,974.75,1139.76,974.75,1139.76z"/>
	<path class="st2" d="M1031.12,1216.15c0,0,15.73-26.52-6.55-90.18c-4.89-13.96-25.93-46.94-33.4-62.6
		c-22.28-46.68-24.53-125.61-31.46-224.92c0,0-22.97,116.7,12.42,234.47c0,0-13.11,49.86,18.35,101.85
		C1021.94,1226.76,1031.12,1216.15,1031.12,1216.15z"/>
	<path class="st2" d="M1022.63,1223.58c0,0,19.8-55.44-45.88-94.42c-14.46-8.58-27.92-20.42-35.39-36.07
		c-22.28-46.68-24.53-125.61-31.46-224.92c0,0-15.73,115.64,19.66,233.41c0,0-18.35,36.07,13.11,88.06
		C974.12,1241.61,1022.63,1223.58,1022.63,1223.58z"/>
	<path class="st2" d="M970.82,1214.03c0,0-19.8-55.44,45.88-94.42c14.46-8.58,27.92-20.42,35.39-36.07
		c22.28-46.68,24.53-125.61,31.46-224.92c0,0,15.73,115.64-19.66,233.41c0,0,18.35,36.07-13.11,88.06
		C1019.32,1232.07,970.82,1214.03,970.82,1214.03z"/>
	<path class="st2" d="M1018.69,1290.42c0,0,19.8-55.44-45.88-94.42c-14.46-8.58-27.92-20.42-35.39-36.07
		c-22.28-46.68-24.53-125.61-31.46-224.92c0,0-15.73,115.64,19.66,233.41c0,0-18.35,36.07,13.11,88.06
		C970.19,1308.45,1018.69,1290.42,1018.69,1290.42z"/>
	<path class="st2" d="M1023.25,1308.45c0,0,15.73-26.52-6.55-90.18c-4.89-13.96-25.93-46.94-33.4-62.6
		c-22.28-46.68-24.53-125.61-31.46-224.92c0,0-22.97,116.7,12.42,234.47c0,0-13.11,49.86,18.35,101.85
		C1014.08,1319.06,1023.25,1308.45,1023.25,1308.45z"/>
	<path class="st2" d="M974.75,1279.81c0,0-19.8-55.44,45.88-94.42c14.46-8.58,27.92-20.42,35.39-36.07
		c22.28-46.68,24.53-125.61,31.46-224.92c0,0,15.73,115.64-19.66,233.41c0,0,18.35,36.07-13.11,88.06
		C1023.25,1297.84,974.75,1279.81,974.75,1279.81z"/>
	<path class="st2" d="M1009.52,1348.77c0,0,19.8-55.44-45.88-94.42c-14.46-8.58-27.92-20.42-35.39-36.07
		c-22.28-46.68-24.53-125.61-31.46-224.92c0,0-15.73,115.64,19.66,233.41c0,0-18.35,36.07,13.11,88.06
		C961.02,1366.8,1009.52,1348.77,1009.52,1348.77z"/>
	<path class="st2" d="M1021.94,1389.08c0,0,15.73-26.52-6.55-90.18c-4.89-13.96-25.93-46.94-33.4-62.6
		c-22.28-46.68-24.53-125.61-31.46-224.92c0,0-22.97,116.7,12.42,234.47c0,0-13.11,49.86,18.35,101.85
		C1012.77,1399.69,1021.94,1389.08,1021.94,1389.08z"/>
	<path class="st2" d="M987.86,1361.5c0,0-17.17-73.48,48.5-112.46c14.46-8.58,27.92-20.42,35.39-36.07
		c22.28-46.68,24.53-125.61,31.46-224.92c0,0,15.73,115.64-19.66,233.41c0,0,18.35,36.07-13.11,88.06
		C1038.98,1361.5,987.86,1361.5,987.86,1361.5z"/>
	<path class="st2" d="M1012.14,1421.97c0,0,19.8-55.44-45.88-94.42c-14.46-8.58-27.92-20.42-35.39-36.07
		c-22.28-46.68-24.53-125.61-31.46-224.92c0,0-15.73,115.64,19.66,233.41c0,0-18.35,36.07,13.11,88.06
		C963.64,1440.01,1012.14,1421.97,1012.14,1421.97z"/>
	<path class="st2" d="M989.17,1423.03c0,0-19.8-55.44,45.88-94.42c14.46-8.58,27.92-20.42,35.39-36.07
		c22.28-46.68,24.53-125.61,31.46-224.92c0,0,15.73,115.64-19.66,233.41c0,0,6.55,32.89-24.91,84.88
		C1025.88,1437.89,989.17,1423.03,989.17,1423.03z"/>
</g>
<circle class="st3" cx="1000" cy="1000" r="470"/>
<circle class="st3" cx="1000" cy="1000" r="505"/>
</svg>
